<svg width="48" height="48" viewBox="0 0 48 48" fill="none" xmlns="http://www.w3.org/2000/svg">
<rect x="1.5" y="18.5" width="45" height="15" rx="5.5" stroke="#152C5B" stroke-width="3"/>
<path d="M17 9.5H19C20.3807 9.5 21.5 10.6193 21.5 12V17.5H14.5V12C14.5 10.6193 15.6193 9.5 17 9.5Z" stroke="#3252DF" stroke-width="3"/>
<path d="M29 9.5H31C32.3807 9.5 33.5 10.6193 33.5 12V17.5H26.5V12C26.5 10.6193 27.6193 9.5 29 9.5Z" stroke="#3252DF" stroke-width="3"/>
<path d="M13 1.5H35C37.4853 1.5 39.5 3.51472 39.5 6V17.5H8.5V6C8.5 3.51472 10.5147 1.5 13 1.5Z" stroke="#152C5B" stroke-width="3"/>
<path d="M9 35V43" stroke="#152C5B" stroke-width="3" stroke-linecap="round"/>
<path d="M39 35V43" stroke="#152C5B" stroke-width="3" stroke-linecap="round"/>
<path d="M39 38L11 38" stroke="#152C5B" stroke-width="3" stroke-linecap="round"/>
</svg>
