<svg width="48" height="48" viewBox="0 0 48 48" fill="none" xmlns="http://www.w3.org/2000/svg">
<path d="M13.5 35.5V44.5C13.5 45.6046 12.6046 46.5 11.5 46.5C10.3954 46.5 9.5 45.6046 9.5 44.5V35.5H13.5Z" fill="white" stroke="#152C5B" stroke-width="3"/>
<path d="M39.5 35.5V44.5C39.5 45.6046 38.6046 46.5 37.5 46.5C36.3954 46.5 35.5 45.6046 35.5 44.5V35.5H39.5Z" fill="white" stroke="#152C5B" stroke-width="3"/>
<path d="M8.98047 23.5H39.0195C39.8101 23.5001 40.5505 23.8739 41.0205 24.502L41.1113 24.6309L45.6934 31.6309C46.7813 33.2934 45.5884 35.4997 43.6016 35.5H4.39844C2.47351 35.4997 1.29419 33.429 2.21191 31.7881L2.30664 31.6309L6.88867 24.6309C7.35051 23.9253 8.13719 23.5001 8.98047 23.5Z" fill="white" stroke="#152C5B" stroke-width="3"/>
<path d="M31 18V22" stroke="#152C5B" stroke-width="3" stroke-linecap="round"/>
<path d="M17 18V22" stroke="#152C5B" stroke-width="3" stroke-linecap="round"/>
<path d="M32 16.5H30C28.6193 16.5 27.5 15.3807 27.5 14V9.5H34.5V14C34.5 15.3807 33.3807 16.5 32 16.5Z" stroke="#3252DF" stroke-width="3"/>
<path d="M18 16.5H16C14.6193 16.5 13.5 15.3807 13.5 14V9.5H20.5V14C20.5 15.3807 19.3807 16.5 18 16.5Z" stroke="#3252DF" stroke-width="3"/>
</svg>
