<svg width="48" height="48" viewBox="0 0 48 48" fill="none" xmlns="http://www.w3.org/2000/svg">
<path d="M30.5 40C30.5 41.3349 29.3789 42.9472 26.6429 44.3152C23.9966 45.6383 20.2359 46.5 16 46.5C11.7641 46.5 8.00336 45.6383 5.35711 44.3152C2.62114 42.9472 1.5 41.3349 1.5 40C1.5 38.6651 2.62114 37.0528 5.35711 35.6848C8.00336 34.3617 11.7641 33.5 16 33.5C20.2359 33.5 23.9966 34.3617 26.6429 35.6848C29.3789 37.0528 30.5 38.6651 30.5 40Z" stroke="#152C5B" stroke-width="3"/>
<path d="M29.5 14.3246C29.5 18.0068 27.9514 24.714 25.3813 30.522C24.102 33.4132 22.6129 35.9801 21.0167 37.7988C19.3938 39.6478 17.8635 40.5 16.5 40.5C15.1365 40.5 13.6062 39.6478 11.9833 37.7988C10.3871 35.9801 8.89797 33.4132 7.61866 30.522C5.04864 24.714 3.5 18.0068 3.5 14.3246C3.5 7.25893 9.30303 1.5 16.5 1.5C23.697 1.5 29.5 7.25893 29.5 14.3246Z" fill="white" stroke="#152C5B" stroke-width="3"/>
<circle cx="16" cy="15" r="3.5" stroke="#3252DF" stroke-width="3"/>
</svg>
