<svg width="38" height="37" viewBox="0 0 38 37" fill="none" xmlns="http://www.w3.org/2000/svg">
<path d="M17.0979 1.8541C17.6966 0.0114822 20.3034 0.0114799 20.9021 1.8541L23.9393 11.2016C24.2071 12.0257 24.975 12.5836 25.8414 12.5836H35.67C37.6074 12.5836 38.413 15.0628 36.8456 16.2016L28.8941 21.9787C28.1931 22.488 27.8998 23.3907 28.1675 24.2148L31.2047 33.5623C31.8034 35.4049 29.6945 36.9372 28.127 35.7984L20.1756 30.0213C19.4746 29.512 18.5254 29.512 17.8244 30.0213L9.87295 35.7984C8.30553 36.9372 6.19656 35.4049 6.79527 33.5623L9.83246 24.2148C10.1002 23.3907 9.80689 22.488 9.10592 21.9787L1.15444 16.2016C-0.412985 15.0628 0.392565 12.5836 2.33001 12.5836H12.1586C13.025 12.5836 13.7929 12.0257 14.0607 11.2016L17.0979 1.8541Z" fill="#FFCC47"/>
<path d="M18.5244 2.31738C18.6648 1.88587 19.2457 1.85896 19.4414 2.23633L19.4756 2.31738L22.5127 11.665C22.9813 13.1071 24.3255 14.084 25.8418 14.084H35.6699C36.124 14.084 36.3291 14.628 36.0303 14.9307L35.9639 14.9883L28.0127 20.7656C26.8628 21.6011 26.339 23.0413 26.6641 24.4062L26.7412 24.6787L29.7783 34.0254C29.9186 34.4571 29.4641 34.8212 29.084 34.6309L29.0088 34.585L21.0576 28.8076C19.9076 27.9721 18.3755 27.9202 17.1777 28.6514L16.9424 28.8076L8.99121 34.585C8.62392 34.8517 8.13742 34.5318 8.20117 34.1113L8.22168 34.0254L11.2588 24.6787C11.6981 23.3268 11.2744 21.8536 10.209 20.9404L9.9873 20.7656L2.03613 14.9883C1.64428 14.7036 1.84572 14.084 2.33008 14.084H12.1582C13.5798 14.084 14.8505 13.2254 15.3896 11.9297L15.4873 11.665L18.5244 2.31738Z" stroke="#FFCC47" stroke-opacity="0.266667" stroke-width="3"/>
</svg>
